<?xml version="1.0" encoding="UTF-8" standalone="no"?>
<svg
  xmlns:dc="http://purl.org/dc/elements/1.1/"
  xmlns:cc="http://creativecommons.org/ns#"
  xmlns:rdf="http://www.w3.org/1999/02/22-rdf-syntax-ns#"
  xmlns:svg="http://www.w3.org/2000/svg"
  xmlns="http://www.w3.org/2000/svg"
  xmlns:sodipodi="http://sodipodi.sourceforge.net/DTD/sodipodi-0.dtd"
  xmlns:inkscape="http://www.inkscape.org/namespaces/inkscape"
  inkscape:version="1.0 (4035a4fb49, 2020-05-01)"
  sodipodi:docname="chip-ref.svg"
  id="svg85"
  version="1.1"
  viewBox="0 0 10.6576 10.6576"
  xml:space="preserve"
  style="fill-rule:evenodd;text-rendering:geometricPrecision;image-rendering:optimizeQuality;clip-rule:evenodd;shape-rendering:geometricPrecision"
  inkscape:export-filename="/home/margret/Documents/svg/chip-ref.png"
  inkscape:export-xdpi="9007.4102"
  inkscape:export-ydpi="9007.4102"><sodipodi:namedview
   inkscape:current-layer="svg85"
   inkscape:window-maximized="1"
   inkscape:window-y="28"
   inkscape:window-x="0"
   inkscape:cy="5.5050491"
   inkscape:cx="3.2912672"
   inkscape:zoom="74.076506"
   showgrid="false"
   id="namedview87"
   inkscape:window-height="1027"
   inkscape:window-width="1920"
   inkscape:pageshadow="2"
   inkscape:pageopacity="0"
   guidetolerance="10"
   gridtolerance="10"
   objecttolerance="10"
   borderopacity="1"
   bordercolor="#666666"
   pagecolor="#ffffff"
   inkscape:document-rotation="0" />
 <defs
   id="defs4">
  <style
   id="style2"
   type="text/css">
    .str0 {stroke:#4D4948;stroke-width:0.147924}
    .str2 {stroke:#DB214C;stroke-width:0.29589}
    .str3 {stroke:#DB214C;stroke-width:0.29589;stroke-linecap:round}
    .str1 {stroke:#E77817;stroke-width:0.591821;stroke-linecap:round}
    .fil2 {fill:none}
    .fil1 {fill:#4D4948}
    .fil5 {fill:#DB214C}
    .fil3 {fill:#DEDEDD}
    .fil4 {fill:#DB214C;fill-rule:nonzero}
    .fil0 {fill:black;fill-rule:nonzero}
  </style>
 <inkscape:perspective
   sodipodi:type="inkscape:persp3d"
   inkscape:vp_x="0 : 15 : 1"
   inkscape:vp_y="0 : 1000 : 0"
   inkscape:vp_z="50 : 15 : 1"
   inkscape:persp3d-origin="25 : 10 : 1"
   id="perspective2714" /><inkscape:perspective
   sodipodi:type="inkscape:persp3d"
   inkscape:vp_x="0 : 0.5 : 1"
   inkscape:vp_y="0 : 1000 : 0"
   inkscape:vp_z="1 : 0.5 : 1"
   inkscape:persp3d-origin="0.5 : 0.33333333 : 1"
   id="perspective2806" /><inkscape:perspective
   id="perspective2819"
   inkscape:persp3d-origin="372.04724 : 350.78739 : 1"
   inkscape:vp_z="744.09448 : 526.18109 : 1"
   inkscape:vp_y="0 : 1000 : 0"
   inkscape:vp_x="0 : 526.18109 : 1"
   sodipodi:type="inkscape:persp3d" /><inkscape:perspective
   id="perspective2777"
   inkscape:persp3d-origin="75 : 40 : 1"
   inkscape:vp_z="150 : 60 : 1"
   inkscape:vp_y="0 : 1000 : 0"
   inkscape:vp_x="0 : 60 : 1"
   sodipodi:type="inkscape:persp3d" /><inkscape:perspective
   id="perspective3275"
   inkscape:persp3d-origin="50 : 33.333333 : 1"
   inkscape:vp_z="100 : 50 : 1"
   inkscape:vp_y="0 : 1000 : 0"
   inkscape:vp_x="0 : 50 : 1"
   sodipodi:type="inkscape:persp3d" /><inkscape:perspective
   id="perspective5533"
   inkscape:persp3d-origin="32 : 21.333333 : 1"
   inkscape:vp_z="64 : 32 : 1"
   inkscape:vp_y="0 : 1000 : 0"
   inkscape:vp_x="0 : 32 : 1"
   sodipodi:type="inkscape:persp3d" /><inkscape:perspective
   id="perspective2557"
   inkscape:persp3d-origin="25 : 16.666667 : 1"
   inkscape:vp_z="50 : 25 : 1"
   inkscape:vp_y="0 : 1000 : 0"
   inkscape:vp_x="0 : 25 : 1"
   sodipodi:type="inkscape:persp3d" /><clipPath
   id="clipPath1184"
   clipPathUnits="userSpaceOnUse"><rect
     y="2.2390501"
     x="27.1052"
     height="44.311878"
     width="65.541222"
     id="rect1186"
     style="fill:#dededd;fill-opacity:1;stroke-width:10.0836" /></clipPath>










  </defs>
<symbol
   viewBox="-4.01676 -127.298 8.66548 4.20885"
   id="Im1-1-0">
 <path
   id="path6"
   d="m1.2812-125.32v0.028394c-0.08623-0.057249-0.15346-0.14138-0.20178-0.2521-0.048106-0.11072-0.072138-0.23206-0.072138-0.36379 0-0.13689 0.025416-0.26158 0.075912-0.37411 0.050622-0.11257 0.11668-0.19305 0.198-0.24154v0.027723c-0.040682 0.029987-0.074025 0.070837-0.10028 0.12293-0.026087 0.051838-0.045589 0.11794-0.058465 0.19775-0.012834 0.080064-0.019293 0.16353-0.019293 0.25013 0 0.098308 0.0059136 0.18693 0.017783 0.26632 0.011869 0.079393 0.030155 0.14503 0.054523 0.19712 0.024577 0.0523 0.059807 0.099231 0.10573 0.14117zm3.0937-1.1754v-0.027723c0.086355 0.056829 0.15363 0.14071 0.20173 0.25143 0.048106 0.11072 0.072138 0.23206 0.072138 0.36379 0 0.13689-0.025248 0.26183-0.07587 0.37457-0.050664 0.11278-0.11672 0.19326-0.198 0.24174v-0.028394c0.040976-0.029987 0.074528-0.071047 0.10074-0.12293 0.026087-0.051838 0.045589-0.11773 0.058297-0.19754 0.012708-0.079603 0.019167-0.16327 0.019167-0.25034 0-0.097847-0.0059555-0.18651-0.017657-0.26611-0.011827-0.079393-0.029946-0.14524-0.05469-0.19733-0.024577-0.0523-0.059975-0.099231-0.10586-0.14117z"
   class="fil0" />
 <path
   id="path8"
   d="m-3.943-124.38v-1.6625h1.3293v1.6625h-1.3293zm0.041689-0.041689h1.246v-1.5791h-1.246v1.5791z"
   class="fil0" />
 <polygon
   id="polygon10"
   class="fil0"
   points="-3.1172 -126.89 -2.587 -126.89 -2.587 -126.84 -3.1172 -126.84" />
 <path
   id="path12"
   d="m-3.3657-123.48h0.53017v0.049112h-0.53017v-0.049112zm0 0.18844h0.53017v0.049993h-0.53017v-0.049993z"
   class="fil0" />
 <polygon
   id="polygon14"
   class="fil0"
   points="-1.0221 -125.88 -0.49192 -125.88 -0.49192 -125.83 -1.0221 -125.83" />
 <path
   id="path16"
   d="m-2.4997-127.22l0.16659-0.081364h0.016734v0.57844c0 0.03825 0.0015518 0.062198 0.0046554 0.071718 0.0032714 0.0093108 0.0099818 0.016524 0.019964 0.021725 0.010192 0.0049909 0.030658 0.0079267 0.061694 0.0085978v0.018622h-0.2576v-0.018622c0.032378-0.00067105 0.053264-0.0034391 0.062743-0.00843 0.0092688-0.0048232 0.015812-0.011408 0.019586-0.01967 0.0036488-0.0082623 0.0055361-0.032923 0.0055361-0.073941v-0.36983c0-0.049825-0.0017196-0.0817-0.0049909-0.095834-0.0024325-0.010863-0.0067524-0.018789-0.01296-0.023822-0.0061652-0.0049909-0.013547-0.0075912-0.022354-0.0075912-0.012414 0-0.02982 0.0052006-0.052048 0.015728l-0.0075493-0.015728z"
   class="fil0" />
 <path
   id="path18"
   d="m-2.7433-123.44c0-0.078093 0.011701-0.14537 0.035314-0.20173 0.023612-0.056368 0.054774-0.098434 0.093905-0.12603 0.030323-0.021893 0.061527-0.032923 0.093905-0.032923 0.052384 0 0.099567 0.026926 0.1413 0.080358 0.052216 0.06635 0.078219 0.15619 0.078219 0.2698 0 0.079477-0.011366 0.14688-0.034307 0.2024-0.022858 0.055697-0.052006 0.096044-0.08753 0.12104-0.035482 0.025164-0.069789 0.037579-0.10284 0.037579-0.065134 0-0.11961-0.038459-0.16302-0.11571-0.036698-0.064966-0.054942-0.14323-0.054942-0.23478zm0.098896 0.012582c0 0.094282 0.011534 0.17137 0.034811 0.23084 0.019125 0.050161 0.047896 0.075325 0.08581 0.075325 0.018286 0 0.037033-0.0082623 0.056494-0.024451 0.01967-0.016399 0.034475-0.043786 0.044457-0.082077 0.015518-0.05792 0.023277-0.13966 0.023277-0.24497 0-0.078093-0.0080945-0.14327-0.024325-0.19553-0.012037-0.038795-0.027723-0.066182-0.046848-0.082413-0.013798-0.01103-0.030491-0.016524-0.049951-0.016524-0.022941 0-0.043282 0.01015-0.061149 0.030658-0.024158 0.027932-0.040682 0.071928-0.04949 0.1319-0.0088075 0.060017-0.013085 0.11894-0.013085 0.17724z"
   class="fil0" />
 <polygon
   id="polygon20"
   class="fil0"
   points="2.3562 -126.3 2.1083 -125.57 2.0679 -125.57 2.3157 -126.3" />
 <path
   id="path22"
   d="m-3.6916-127.28l0.21142 0.53705 0.11458-0.40116c0.0094785-0.032965 0.014134-0.058465 0.014134-0.076751 0-0.012414-0.0043199-0.022228-0.013127-0.029316-0.0087656-0.007046-0.024955-0.010485-0.048902-0.010485-0.0039843 0-0.0082623-0.00016776-0.012582-0.00054523l0.0054942-0.018789h0.22006l-0.0060394 0.018789c-0.022941-0.00033552-0.039802 0.0019293-0.051 0.0070879-0.015854 0.007046-0.027597 0.016189-0.035356 0.027219-0.010653 0.015895-0.021683 0.04345-0.032714 0.08279l-0.16109 0.56477h-0.018118l-0.22778-0.5779-0.12163 0.42687c-0.0089752 0.032252-0.013631 0.057081-0.013631 0.074151 0 0.012918 0.0041521 0.022564 0.012414 0.029107 0.0082623 0.0065846 0.02789 0.01103 0.058758 0.013463l-0.0049909 0.018622h-0.21503l0.007046-0.018622c0.026842-0.00067105 0.04496-0.0031036 0.054103-0.007046 0.013798-0.0062072 0.023948-0.013966 0.0307-0.023822 0.0097721-0.014805 0.020635-0.04345 0.032881-0.085852l0.13576-0.47636c-0.013085-0.020173-0.027219-0.03414-0.042192-0.041689-0.015015-0.0074235-0.038292-0.011743-0.069957-0.012792l0.005662-0.018789h0.17112z"
   class="fil0" />
 <path
   id="path24"
   d="m-3.7421-123.56l-0.067063 0.22979c0.062911-0.093947 0.11114-0.15585 0.14457-0.1855 0.033426-0.029484 0.065637-0.044289 0.096631-0.044289 0.016902 0 0.0307 0.0054942 0.041731 0.016524 0.010863 0.011198 0.016399 0.02571 0.016399 0.04345 0 0.020173-0.0048232 0.047225-0.014679 0.080861l-0.061485 0.21255c-0.0072557 0.024661-0.010695 0.039676-0.010695 0.045002 0 0.0046554 0.001384 0.0086397 0.0039424 0.011911 0.0027681 0.0032714 0.0057039 0.0048232 0.0086397 0.0048232 0.0041521 0 0.0089752-0.0022228 0.014637-0.0065427 0.017909-0.014134 0.037369-0.035691 0.058591-0.064672l0.015686 0.0094785c-0.031371 0.044834-0.061023 0.076919-0.088914 0.096044-0.019502 0.013127-0.037075 0.01967-0.052426 0.01967-0.01254 0-0.022354-0.0038166-0.029778-0.011408-0.0074235-0.0075493-0.011198-0.017741-0.011198-0.030491 0-0.016231 0.0057039-0.043954 0.017238-0.083294l0.058591-0.20308c0.0073815-0.025164 0.01103-0.045002 0.01103-0.059136 0-0.0067105-0.0022648-0.012247-0.0065427-0.016357-0.0043199-0.0041521-0.009856-0.0064169-0.016231-0.0064169-0.0093108 0-0.020677 0.0041521-0.033762 0.012247-0.024996 0.015182-0.050832 0.040179-0.077674 0.07499-0.026926 0.034852-0.055361 0.079309-0.085307 0.13362-0.015854 0.028645-0.028981 0.059849-0.039508 0.093988l-0.025122 0.083252h-0.075828l0.09185-0.31619c0.010863-0.038082 0.016189-0.061023 0.016189-0.068614 0-0.0074235-0.0029358-0.013966-0.0088075-0.019502-0.0058297-0.0054942-0.013253-0.00843-0.021893-0.00843-0.0040682 0-0.011156 0.00071299-0.021306 0.0020551l-0.019167 0.0031036-0.0029358-0.018244 0.1746-0.031204z"
   class="fil0" />
 <path
   id="path26"
   d="m2.8954-126.27l0.21142 0.53705 0.11462-0.40116c0.0094785-0.032965 0.014134-0.058465 0.014134-0.076751 0-0.012414-0.0043199-0.022228-0.013127-0.029316-0.0087656-0.007046-0.024996-0.010485-0.048902-0.010485-0.0039843 0-0.0082623-0.00016776-0.012582-0.00054523l0.0054942-0.018789h0.22006l-0.0060394 0.018789c-0.022941-0.00033552-0.039843 0.0019293-0.051042 0.0070879-0.015812 0.007046-0.027555 0.016189-0.035314 0.027219-0.010653 0.015895-0.021725 0.04345-0.032756 0.08279l-0.16109 0.56477h-0.018076l-0.22778-0.5779-0.12167 0.42687c-0.0089752 0.032252-0.013631 0.057081-0.013631 0.074151 0 0.012918 0.0041521 0.022564 0.012414 0.029107 0.0082623 0.0065846 0.027932 0.01103 0.0588 0.013463l-0.0049909 0.018622h-0.21507l0.007046-0.018622c0.026884-0.00067105 0.045002-0.0031036 0.054145-0.007046 0.013756-0.0062072 0.023906-0.013966 0.030658-0.023822 0.0098141-0.014805 0.020677-0.04345 0.032923-0.085852l0.13576-0.47636c-0.013127-0.020173-0.027261-0.03414-0.042192-0.041689-0.015015-0.0074235-0.038292-0.011743-0.069999-0.012792l0.005662-0.018789h0.17112zm-1.3126 0.22795l-0.067063 0.22979c0.062911-0.093947 0.11114-0.15585 0.14457-0.1855 0.033468-0.029484 0.065637-0.044289 0.096673-0.044289 0.016902 0 0.030658 0.0054942 0.041689 0.016524 0.010863 0.011198 0.016399 0.02571 0.016399 0.04345 0 0.020173-0.0048232 0.047225-0.014679 0.080861l-0.061485 0.21255c-0.0072557 0.024661-0.010695 0.039676-0.010695 0.045002 0 0.0046554 0.001384 0.0086397 0.0039424 0.011911 0.0027681 0.0032714 0.0057039 0.0048232 0.0086397 0.0048232 0.0041521 0 0.0089752-0.0022228 0.014637-0.0065427 0.01795-0.014134 0.037369-0.035691 0.058591-0.064672l0.015686 0.0094785c-0.031371 0.044834-0.060981 0.076919-0.088914 0.096044-0.019502 0.013127-0.037075 0.01967-0.052384 0.01967-0.012582 0-0.022396-0.0038166-0.02982-0.011408-0.0074235-0.0075493-0.011198-0.017741-0.011198-0.030491 0-0.016231 0.0057039-0.043954 0.017238-0.083294l0.058591-0.20308c0.0073815-0.025164 0.01103-0.045002 0.01103-0.059136 0-0.0067105-0.0022648-0.012247-0.0065427-0.016357-0.0043199-0.0041521-0.009856-0.0064169-0.016231-0.0064169-0.0093108 0-0.020635 0.0041521-0.033762 0.012247-0.024996 0.015182-0.050832 0.040179-0.077674 0.07499-0.026926 0.034852-0.055319 0.079309-0.085307 0.13362-0.015854 0.028645-0.028981 0.059849-0.039508 0.093988l-0.025122 0.083252h-0.075786l0.09185-0.31619c0.010821-0.038082 0.016147-0.061023 0.016147-0.068614 0-0.0074235-0.0029358-0.013966-0.0088075-0.019502-0.0057878-0.0054942-0.013211-0.00843-0.021851-0.00843-0.0041102 0-0.011198 0.00071299-0.021348 0.0020551l-0.019167 0.0031036-0.0029358-0.018244 0.1746-0.031204zm-1.2796-0.20052c0.014134 0 0.026003 0.0048232 0.035859 0.014637 0.0096463 0.0096882 0.014637 0.021557 0.014637 0.035859 0 0.013798-0.0049909 0.025542-0.015015 0.035524-0.0098141 0.010024-0.021725 0.014847-0.035482 0.014847-0.013798 0-0.025668-0.0048232-0.035649-0.014847-0.009856-0.0099818-0.014847-0.021725-0.014847-0.035524 0-0.014302 0.0048232-0.026171 0.014637-0.035859 0.0096882-0.0098141 0.021683-0.014637 0.035859-0.014637zm0.0065427 0.20052l-0.099944 0.35394c-0.0067105 0.023948-0.01015 0.03825-0.01015 0.042905 0 0.0055361 0.0015518 0.009856 0.0048232 0.013295 0.0032294 0.0032714 0.007046 0.0049909 0.011324 0.0049909 0.0050328 0 0.01103-0.0027681 0.018118-0.0080945 0.019293-0.015182 0.038627-0.03674 0.058046-0.064672l0.017783 0.011576c-0.022941 0.034978-0.049783 0.064462-0.080819 0.088452-0.0229 0.017909-0.044792 0.026716-0.065637 0.026716-0.013798 0-0.024996-0.0041521-0.033762-0.012247-0.0088075-0.0082623-0.013085-0.018622-0.013085-0.031204 0-0.012414 0.0041102-0.033091 0.012582-0.062072l0.065637-0.22635c0.010695-0.036908 0.016147-0.060184 0.016147-0.069663 0-0.0074235-0.0025584-0.013463-0.0078848-0.018118-0.0051587-0.0048232-0.012414-0.007046-0.02139-0.007046-0.0073815 0-0.022732 0.0017196-0.046009 0.0054942v-0.019628l0.17422-0.028268zm0.3453-0.2612l-0.14335 0.49653 0.057542-0.048986c0.062869-0.053264 0.10372-0.092562 0.12268-0.11827 0.0060394-0.00843 0.0089333-0.014805 0.0089333-0.019125 0-0.0031036-0.00083881-0.0058717-0.0028939-0.0085978-0.002097-0.0027681-0.0060394-0.0048651-0.011911-0.0065846-0.0058717-0.0017196-0.016189-0.0025584-0.030994-0.0025584h-0.017741l0.0054942-0.019167h0.22073l-0.0051587 0.019167c-0.025206 0.001384-0.046889 0.0053264-0.065301 0.011869-0.018286 0.0065427-0.036027 0.016231-0.053264 0.029149-0.03393 0.025164-0.056368 0.042737-0.06723 0.052426l-0.043408 0.038417c0.0074235 0.024325 0.016566 0.058129 0.027429 0.10154 0.018076 0.072096 0.030281 0.11483 0.036698 0.1283 0.0065427 0.013421 0.013085 0.020173 0.019796 0.020173 0.0057039 0 0.012414-0.0027681 0.020173-0.0086397 0.017363-0.01275 0.036153-0.033091 0.05599-0.061023l0.017783 0.012582c-0.03674 0.046218-0.06484 0.076541-0.084468 0.09122-0.01946 0.014637-0.037243 0.021893-0.053432 0.021893-0.014092 0-0.025122-0.0055361-0.032881-0.016566-0.013463-0.020006-0.035859-0.098266-0.067021-0.23499l-0.069286 0.060184-0.05188 0.1793h-0.078722l0.16747-0.57634 0.014134-0.048944c0.0017196-0.008472 0.0026003-0.015895 0.0026003-0.02227 0-0.0080945-0.0031036-0.014805-0.0093108-0.020173-0.0062072-0.0053264-0.01535-0.0080945-0.027094-0.0080945-0.0076751 0-0.019922 0.0017196-0.036824 0.0049909v-0.017573l0.17472-0.02982z"
   class="fil0" />
 <path
   id="path28"
   d="m-1.7527-125.12c-0.0041521 0.028981-0.0062072 0.052887-0.0062072 0.072138 0 0.051125 0.018328 0.094869 0.054606 0.13119 0.036362 0.036069 0.080358 0.054103 0.13232 0.054103 0.041689 0 0.081532-0.0085558 0.11995-0.02571 0.038417-0.01686 0.095456-0.05469 0.17108-0.1129l0.017992 0.025122c-0.13677 0.13568-0.26704 0.20333-0.39114 0.20333-0.084132 0-0.14767-0.02659-0.19049-0.079477-0.042528-0.053222-0.063791-0.11173-0.063791-0.17586 0-0.08602 0.026255-0.1741 0.079435-0.26422 0.05318-0.089878 0.11966-0.15992 0.19997-0.20987 0.080064-0.049951 0.16277-0.07478 0.24757-0.07478 0.061107 0 0.10636 0.012414 0.13584 0.037243 0.029274 0.024829 0.044037 0.054103 0.044037 0.088075 0 0.04819-0.018915 0.093988-0.057039 0.13773-0.050203 0.057333-0.12406 0.10347-0.22153 0.13861-0.064672 0.023654-0.15568 0.042276-0.27261 0.055278zm0.0059136-0.042276c0.085349-0.0097302 0.15505-0.02659 0.20853-0.050245 0.071173-0.031623 0.12435-0.069747 0.15979-0.11378 0.03544-0.044331 0.05318-0.086272 0.05318-0.1262 0-0.024242-0.007717-0.043744-0.023067-0.0588-0.015015-0.015099-0.036908-0.02248-0.065259-0.02248-0.0588 0-0.12112 0.03133-0.18726 0.093988-0.066182 0.062659-0.11462 0.15518-0.14591 0.27752z"
   class="fil0" />
 <path
   id="path30"
   d="m0.21511-126.05l-0.025038 0.073312h-0.12217c-0.038082 0.077045-0.069202 0.15099-0.093359 0.2217-0.011911 0.034852-0.014344 0.059639-0.0073396 0.074486 0.0070879 0.015015 0.01946 0.022564 0.037746 0.022564 0.014469 0 0.028771-0.0049909 0.043073-0.01514 0.014176-0.010192 0.026045-0.024871 0.035733-0.043996h0.017573c-0.023906 0.053264-0.049448 0.090717-0.076541 0.11261-0.027177 0.021851-0.053138 0.032881-0.077632 0.032881-0.02638 0-0.043954-0.012037-0.05339-0.035817-0.0093947-0.02399-0.0027261-0.068614 0.019628-0.134 0.014008-0.041018 0.047183-0.11945 0.099525-0.23529h-0.13127c-0.070712 0.17653-0.12158 0.28809-0.15241 0.33494-0.030616 0.046764-0.059136 0.070166-0.084971 0.070166-0.012079 0-0.020677-0.0041102-0.025877-0.012037-0.0051587-0.0080945-0.005662-0.018286-0.0015518-0.030323 0.0030197-0.0088075 0.007004-0.016399 0.011785-0.022774 0.0067944-0.0088075 0.018915-0.021054 0.036404-0.036908 0.02982-0.027261 0.053852-0.055865 0.072221-0.085852 0.031959-0.051209 0.066182-0.12364 0.1025-0.21721h-0.023277c-0.024451 0-0.044289 0.0041102-0.059094 0.012205-0.023612 0.012079-0.048441 0.032252-0.074276 0.06052h-0.01967c0.038879-0.058297 0.074486-0.098434 0.10745-0.12066 0.024871-0.016902 0.054816-0.025374 0.089459-0.025374h0.35477z"
   class="fil0" />
</symbol>

<metadata
   id="metadata83"><rdf:RDF><cc:Work><dc:format>image/svg+xml</dc:format><dc:type
         rdf:resource="http://purl.org/dc/dcmitype/StillImage" /><cc:license
         rdf:resource="http://creativecommons.org/publicdomain/zero/1.0/" /><dc:publisher><cc:Agent
           rdf:about="http://openclipart.org/"><dc:title>Openclipart</dc:title></cc:Agent></dc:publisher><dc:title /><dc:date>2010-12-20T10:30:39</dc:date><dc:description>802.11n Chip</dc:description><dc:source>https://openclipart.org/detail/101437/wifi-802.11n-by-pgbrandolin</dc:source><dc:creator><cc:Agent><dc:title>pgbrandolin</dc:title></cc:Agent></dc:creator><dc:subject><rdf:Bag><rdf:li>802.11n</rdf:li><rdf:li>WiFi</rdf:li><rdf:li>chip</rdf:li><rdf:li>hardware</rdf:li></rdf:Bag></dc:subject></cc:Work><cc:License
       rdf:about="http://creativecommons.org/publicdomain/zero/1.0/"><cc:permits
         rdf:resource="http://creativecommons.org/ns#Reproduction" /><cc:permits
         rdf:resource="http://creativecommons.org/ns#Distribution" /><cc:permits
         rdf:resource="http://creativecommons.org/ns#DerivativeWorks" /></cc:License></rdf:RDF></metadata><path
   class="fil1 str0"
   d="m 2.8124,1.1347 h 5.0328 c 0.92403,0 1.6776,0.75359 1.6776,1.6776 v 5.0328 c 0,0.92403 -0.75359,1.6776 -1.6776,1.6776 H 2.8124 C 1.88837,9.5227 1.1348,8.76911 1.1348,7.8451 V 2.8123 c 0,-0.92403 0.75359,-1.6776 1.6776,-1.6776 z"
   id="_48879472" /><g
   id="g41">
    <line
   x1="1.1346999"
   y1="7.0064001"
   x2="0.29593"
   class="fil2 str1"
   y2="7.0064001"
   id="_49289904" />
    <line
   x1="1.1346999"
   y1="6.1669002"
   x2="0.29593"
   class="fil2 str1"
   y2="6.1669002"
   id="_48403816" />
    <line
   x1="1.1346999"
   y1="4.4899998"
   x2="0.29593"
   class="fil2 str1"
   y2="4.4899998"
   id="_49204088" />
    <line
   x1="1.1346999"
   y1="5.3281002"
   x2="0.29593"
   class="fil2 str1"
   y2="5.3281002"
   id="_49204208" />
    <line
   x1="1.1346999"
   y1="3.6505001"
   x2="0.29593"
   class="fil2 str1"
   y2="3.6505001"
   id="_49290992" />
    <line
   x1="1.1346999"
   y1="2.8117001"
   x2="0.29593"
   class="fil2 str1"
   y2="2.8117001"
   id="_48639800" />
    <line
   x1="1.1346999"
   y1="7.8449001"
   x2="0.29593"
   class="fil2 str1"
   y2="7.8449001"
   id="_48644528" />
   </g><g
   id="g50">
    <line
   x1="10.362"
   y1="7.0064001"
   x2="9.5228004"
   class="fil2 str1"
   y2="7.0064001"
   id="_48405752" />
    <line
   x1="10.362"
   y1="6.1669002"
   x2="9.5228004"
   class="fil2 str1"
   y2="6.1669002"
   id="_48646592" />
    <line
   x1="10.362"
   y1="4.4899998"
   x2="9.5228004"
   class="fil2 str1"
   y2="4.4899998"
   id="_48403280" />
    <line
   x1="10.362"
   y1="5.3281002"
   x2="9.5228004"
   class="fil2 str1"
   y2="5.3281002"
   id="_48357280" />
    <line
   x1="10.362"
   y1="3.6505001"
   x2="9.5228004"
   class="fil2 str1"
   y2="3.6505001"
   id="_49418576" />
    <line
   x1="10.362"
   y1="2.8117001"
   x2="9.5228004"
   class="fil2 str1"
   y2="2.8117001"
   id="_48405824" />
    <line
   x1="10.362"
   y1="7.8449001"
   x2="9.5228004"
   class="fil2 str1"
   y2="7.8449001"
   id="_49418384" />
   </g><g
   id="g59">
    <line
   x1="3.6512001"
   y1="10.362"
   x2="3.6512001"
   class="fil2 str1"
   y2="9.5228004"
   id="_49418408" />
    <line
   x1="4.4906001"
   y1="10.362"
   x2="4.4906001"
   class="fil2 str1"
   y2="9.5228004"
   id="_49418528" />
    <line
   x1="6.1676002"
   y1="10.362"
   x2="6.1676002"
   class="fil2 str1"
   y2="9.5228004"
   id="_48624064" />
    <line
   x1="5.3294001"
   y1="10.362"
   x2="5.3294001"
   class="fil2 str1"
   y2="9.5228004"
   id="_48730256" />
    <line
   x1="7.0071001"
   y1="10.362"
   x2="7.0071001"
   class="fil2 str1"
   y2="9.5228004"
   id="_48696176" />
    <line
   x1="7.8459001"
   y1="10.362"
   x2="7.8459001"
   class="fil2 str1"
   y2="9.5228004"
   id="_48646640" />
    <line
   x1="2.8127"
   y1="10.362"
   x2="2.8127"
   class="fil2 str1"
   y2="9.5228004"
   id="_48696152" />
   </g><g
   id="g68">
    <line
   x1="3.6508"
   y1="1.1346999"
   x2="3.6508"
   class="fil2 str1"
   y2="0.29593"
   id="_48730584" />
    <line
   x1="4.4903002"
   y1="1.1346999"
   x2="4.4903002"
   class="fil2 str1"
   y2="0.29593"
   id="_48695832" />
    <line
   x1="6.1673002"
   y1="1.1346999"
   x2="6.1673002"
   class="fil2 str1"
   y2="0.29593"
   id="_48696128" />
    <line
   x1="5.3291001"
   y1="1.1346999"
   x2="5.3291001"
   class="fil2 str1"
   y2="0.29593"
   id="_48730560" />
    <line
   x1="7.0067"
   y1="1.1346999"
   x2="7.0067"
   class="fil2 str1"
   y2="0.29593"
   id="_49418792" />
    <line
   x1="7.8455"
   y1="1.1346999"
   x2="7.8455"
   class="fil2 str1"
   y2="0.29593"
   id="_48730512" />
    <line
   x1="2.8124001"
   y1="1.1346999"
   x2="2.8124001"
   class="fil2 str1"
   y2="0.29593"
   id="_48405728" />
   </g><path
   style="stroke:#008c4a;stroke-opacity:1;fill:#ffffff;fill-opacity:1"
   class="fil3 str2"
   d="m 3.064,1.9316 h 4.5296 c 0.62374,0 1.1324,0.50865 1.1324,1.1324 V 7.5936 C 8.726,8.21734 8.21735,8.726 7.5936,8.726 H 3.064 C 2.44026,8.726 1.9316,8.21735 1.9316,7.5936 V 3.064 c 0,-0.62374 0.50865,-1.1324 1.1324,-1.1324 z"
   id="_48730488" /><path
   d="m 2.3092128,3.4517272 v 4.0259411 c 1.0065085,-0.6288742 2.013017,-0.6288742 3.0196494,0 1.0065085,-0.6288742 2.0130172,-0.6288742 3.0195254,0 V 3.4517272 c -1.0065082,-0.6290602 -2.0130169,-0.6290602 -3.0195254,0 -1.0158953,-0.6011481 -2.1221561,-0.5502495 -3.0196494,0 z M 4.8254531,3.9864251 V 6.4711598 C 4.1851474,6.2574045 3.5980333,6.2025717 3.0168975,6.4240718 V 3.8763876 C 3.7253879,3.5639642 4.4047578,3.7139647 4.8254531,3.9864251 Z M 7.6408268,3.8763876 V 6.4240718 C 6.9292387,6.2016423 6.3945407,6.2824975 5.8319616,6.4711598 V 3.9864251 C 6.4100303,3.6644912 6.9688919,3.5784623 7.6408268,3.8763876 Z"
   id="rect3027"
   style="fill:#000000;fill-opacity:1;stroke:none;stroke-width:0.30979" /></svg>
